<?xml version="1.0" encoding="utf-8"?>
<!-- Generator: Adobe Illustrator 24.0.1, SVG Export Plug-In . SVG Version: 6.00 Build 0)  -->
<svg version="1.1" id="Layer_1" xmlns="http://www.w3.org/2000/svg" xmlns:xlink="http://www.w3.org/1999/xlink" x="0px" y="0px"
	 viewBox="0 0 3300 2200" style="enable-background:new 0 0 3300 2200;" xml:space="preserve">
<style type="text/css">
	.st0{fill:#FFFFFF;}
	.st1{fill:none;stroke:#000000;stroke-width:0.5;}
	.st2{font-family:'Arial-BoldMT';}
	.st3{font-size:12px;}
	.st4{font-family:'ArialMT';}
	.st5{opacity:0.4;fill:#00AEEF;enable-background:new    ;}
	.st6{fill:#27AAE1;}
	.st7{fill:none;stroke:#27AAE1;stroke-width:0.577;}
</style>
<g id="Notes">
	<rect id="artboard" class="st0" width="3300" height="2200"/>
	<line class="st1" x1="263" y1="292" x2="3036" y2="292"/>
	<text transform="matrix(1 0 0 1 263 322)" class="st2 st3">Weight/Scale Variations</text>
	<text transform="matrix(1 0 0 1 536.0362 322)" class="st4 st3">Ultralight</text>
	<text transform="matrix(1 0 0 1 844.7501 322)" class="st4 st3">Thin</text>
	<text transform="matrix(1 0 0 1 1140.1193 322)" class="st4 st3">Light</text>
	<text transform="matrix(1 0 0 1 1428.8282 322)" class="st4 st3">Regular</text>
	<text transform="matrix(1 0 0 1 1725.2202 322)" class="st4 st3">Medium</text>
	<text transform="matrix(1 0 0 1 2018.2563 322)" class="st4 st3">Semibold</text>
	<text transform="matrix(1 0 0 1 2327.9712 322)" class="st4 st3">Bold</text>
	<text transform="matrix(1 0 0 1 2619.6831 322)" class="st4 st3">Heavy</text>
	<text transform="matrix(1 0 0 1 2918.728 322)" class="st4 st3">Black</text>
	<line class="st1" x1="263" y1="1903" x2="3036" y2="1903"/>
	<g transform="matrix(1 0 0 1 263 1933)">
		<path d="M9.2,0.8c4.3,0,7.9-3.6,7.9-7.9c0-4.3-3.6-7.9-7.9-7.9c-4.3,0-7.9,3.6-7.9,7.9C1.4-2.7,5,0.8,9.2,0.8z M9.2-0.7
			c-3.5,0-6.4-2.8-6.4-6.4c0-3.6,2.8-6.4,6.4-6.4c3.6,0,6.4,2.8,6.4,6.4C15.7-3.5,12.8-0.7,9.2-0.7z M9.2-3.4c0.5,0,0.7-0.3,0.7-0.8
			v-2.1h2.2C12.7-6.3,13-6.6,13-7c0-0.5-0.3-0.7-0.8-0.7H10V-10c0-0.5-0.3-0.8-0.7-0.8S8.5-10.5,8.5-10v2.2H6.3
			C5.8-7.8,5.4-7.5,5.4-7c0,0.5,0.4,0.7,0.8,0.7h2.2v2.1C8.5-3.8,8.8-3.4,9.2-3.4z"/>
	</g>
	<g transform="matrix(1 0 0 1 281.506 1933)">
		<path d="M11.7,2.9c5.4,0,10-4.5,10-10c0-5.4-4.5-10-10-10c-5.4,0-10,4.5-10,10C1.7-1.6,6.3,2.9,11.7,2.9z M11.7,1.2
			c-4.6,0-8.3-3.7-8.3-8.3c0-4.6,3.7-8.3,8.3-8.3c4.6,0,8.3,3.7,8.3,8.3C20-2.4,16.3,1.2,11.7,1.2z M11.7-2.4c0.5,0,0.8-0.4,0.8-0.9
			v-2.9h3.1c0.5,0,0.9-0.3,0.9-0.8c0-0.5-0.4-0.8-0.9-0.8h-3.1v-3.1c0-0.6-0.3-0.9-0.8-0.9c-0.5,0-0.8,0.4-0.8,0.9v3.1h-3
			C7.3-7.9,6.9-7.6,6.9-7c0,0.5,0.4,0.8,0.9,0.8h3v2.9C10.9-2.8,11.2-2.4,11.7-2.4z"/>
	</g>
	<g transform="matrix(1 0 0 1 304.924 1933)">
		<path d="M15,5.7c7,0,12.7-5.8,12.7-12.7c0-7-5.8-12.7-12.7-12.7C8-19.8,2.3-14,2.3-7C2.3-0.1,8,5.7,15,5.7z M15,3.9
			C8.9,3.9,4.1-1,4.1-7c0-6,4.8-10.9,10.9-10.9c6,0,10.9,4.9,10.9,10.9C25.9-1,21,3.9,15,3.9z M15-1.1c0.6,0,0.9-0.4,0.9-1v-4.1h4.2
			c0.6,0,1-0.3,1-0.9c0-0.6-0.4-0.9-1-0.9h-4.2v-4.2c0-0.6-0.4-1-0.9-1c-0.6,0-0.9,0.4-0.9,1v4.2H9.8c-0.6,0-1,0.3-1,0.9
			c0,0.6,0.4,0.9,1,0.9h4.2v4.1C14.1-1.5,14.4-1.1,15-1.1z"/>
	</g>
	<text transform="matrix(1 0 0 1 263 1953)" class="st2 st3">Design Variations</text>
	<text transform="matrix(1 0 0 1 263 1971)" class="st4 st3">Symbols are supported in up to nine weights and three scales.</text>
	<text transform="matrix(1 0 0 1 263 1989)" class="st4 st3">For optimal layout with text and other symbols, vertically align</text>
	<text transform="matrix(1 0 0 1 263 2007)" class="st4 st3">symbols with the adjacent text.</text>
	<rect x="776" y="1919" class="st5" width="3" height="14"/>
	<g transform="matrix(1 0 0 1 779 1933)">
		<path d="M10.5,0h1.8L7.2-14.1H5.4L0.2,0h1.8l1.4-4h5.6L10.5,0z M6.3-12L6.3-12l2.3,6.4H4L6.3-12z"/>
	</g>
	<rect x="791.6" y="1919" class="st5" width="3" height="14"/>
	<text transform="matrix(1 0 0 1 776 1953)" class="st2 st3">Margins</text>
	<text transform="matrix(1 0 0 1 776 1971)" class="st4 st3">Leading and trailing margins on the left and right side of each symbol</text>
	<text transform="matrix(1 0 0 1 776 1989)" class="st4 st3">can be adjusted by modifying the width of the blue rectangles.</text>
	<text transform="matrix(1 0 0 1 776 2007)" class="st4 st3">Modifications are automatically applied proportionally to all</text>
	<text transform="matrix(1 0 0 1 776 2025)" class="st4 st3">scales and weights.</text>
	<g transform="matrix(1 0 0 1 1289 1933)">
		<path d="M2.8,3.1l1.5,1.5c0.8,0.8,1.8,0.8,2.7-0.2L17.3-6.7c0.4,0.3,0.8,0.3,1.3,0.2l1-0.2L20.3-6l0,0.5C20.2-5,20.4-4.5,20.8-4
			l0.8,0.8c0.5,0.5,1.2,0.5,1.6,0.1l3.3-3.3c0.5-0.5,0.5-1.1,0-1.6l-0.8-0.8c-0.5-0.5-0.9-0.7-1.4-0.6l-0.5,0.1l-0.7-0.7l0.3-1.1
			c0.1-0.6,0-1-0.6-1.6l-2.4-2.4c-3.5-3.5-8.1-3.4-11.2-0.3c-0.4,0.4-0.5,1-0.2,1.4c0.2,0.4,0.7,0.6,1.4,0.4c1.5-0.4,3-0.3,4.5,0.7
			l-0.6,1.6c-0.2,0.6-0.2,1.1,0,1.5L3,0.4C2.1,1.3,2,2.3,2.8,3.1z M10.7-15.1c2.7-2,6-1.7,8.4,0.7l2.6,2.6c0.2,0.2,0.3,0.4,0.2,0.7
			l-0.4,1.6L23.1-8L24-8c0.3,0,0.4,0,0.6,0.2l0.6,0.6l-2.8,2.7l-0.6-0.6c-0.2-0.2-0.2-0.3-0.2-0.6l0.1-1l-1.6-1.6l-1.6,0.3
			c-0.3,0.1-0.4,0.1-0.7-0.2l-2.2-2.2c-0.2-0.2-0.3-0.4-0.1-0.7l0.9-2.3c-1.6-1.5-3.7-2.4-5.8-1.7c-0.1,0-0.2,0-0.2,0
			C10.6-15,10.6-15.1,10.7-15.1z M4.1,2.4c-0.5-0.5-0.3-0.8,0-1.1l11-10.1l1.2,1.2L6.2,3.3c-0.3,0.3-0.7,0.4-1.1,0L4.1,2.4z"/>
	</g>
	<text transform="matrix(1 0 0 1 1289 1953)" class="st2 st3">Exporting</text>
	<text transform="matrix(1 0 0 1 1289 1971)" class="st4 st3">Symbols should be outlined when exporting to ensure the</text>
	<text transform="matrix(1 0 0 1 1289 1989)" class="st4 st3">design is preserved when submitting to Xcode.</text>
	<text id="template-version" transform="matrix(1 0 0 1 2958.8496 1933)" class="st4 st3">Template v.1.0</text>
	<text transform="matrix(1 0 0 1 2920.623 1951)" class="st4 st3">Generated from circle</text>
	<text transform="matrix(1 0 0 1 2921.9238 1969)" class="st4 st3">Typeset at 100 points</text>
	<text transform="matrix(1 0 0 1 263 726)" class="st4 st3">Small</text>
	<text transform="matrix(1 0 0 1 263 1156)" class="st4 st3">Medium</text>
	<text transform="matrix(1 0 0 1 263 1586)" class="st4 st3">Large</text>
</g>
<g id="Guides">
	<g id="H-reference" transform="matrix(1 0 0 1 339 696)">
		<path class="st6" d="M54.9,0h2.7L30.6-70.5h-2.5L1,0h2.7l9.3-24.5h32.8L54.9,0z M29.2-67.1h0.2l15.4,40.4h-31L29.2-67.1z"/>
	</g>
	<line id="Baseline-S" class="st7" x1="263" y1="696" x2="3036" y2="696"/>
	<line id="Capline-S" class="st7" x1="263" y1="625.5" x2="3036" y2="625.5"/>
	<g id="H-reference_1_" transform="matrix(1 0 0 1 339 1126)">
		<path class="st6" d="M54.9,0h2.7L30.6-70.5h-2.5L1,0h2.7l9.3-24.5h32.8L54.9,0z M29.2-67.1h0.2l15.4,40.4h-31L29.2-67.1z"/>
	</g>
	<line id="Baseline-M" class="st7" x1="263" y1="1126" x2="3036" y2="1126"/>
	<line id="Capline-M" class="st7" x1="263" y1="1055.5" x2="3036" y2="1055.5"/>
	<g id="H-reference_2_" transform="matrix(1 0 0 1 339 1556)">
		<path class="st6" d="M54.9,0h2.7L30.6-70.5h-2.5L1,0h2.7l9.3-24.5h32.8L54.9,0z M29.2-67.1h0.2l15.4,40.4h-31L29.2-67.1z"/>
	</g>
	<line id="Baseline-L" class="st7" x1="263" y1="1556" x2="3036" y2="1556"/>
	<line id="Capline-L" class="st7" x1="263" y1="1485.5" x2="3036" y2="1485.5"/>
	<rect id="left-margin" x="1391.3" y="1030.8" class="st5" width="8.7" height="119.3"/>
	<rect id="right-margin" x="1499.7" y="1030.8" class="st5" width="8.7" height="119.3"/>
</g>
<g id="Symbols">
	<g id="Black-L" transform="matrix(1 0 0 1 2854.05 1556)">
		<path d="M79.3,32.9c37.4,0,68.1-30.7,68.1-68.1c0-37.4-30.7-68.1-68.1-68.1c-37.4,0-68,30.7-68,68.1C11.3,2.2,41.9,32.9,79.3,32.9
			z M79.3,12.4C53,12.4,31.7-8.8,31.7-35.2s21.2-47.6,47.6-47.6c26.4,0,47.7,21.2,47.7,47.6C127-8.8,105.7,12.4,79.3,12.4z"/>
	</g>
	<g id="Heavy-L" transform="matrix(1 0 0 1 2558.39 1556)">
		<path d="M78.3,31.8c36.8,0,67-30.2,67-67s-30.3-67-67-67c-36.8,0-67,30.2-67,67S41.5,31.8,78.3,31.8z M78.3,14
			C51,14,29.1-8,29.1-35.2c0-27.3,21.9-49.3,49.2-49.3c27.2,0,49.2,22,49.3,49.3C127.5-8,105.6,14,78.3,14z"/>
	</g>
	<g id="Bold-L" transform="matrix(1 0 0 1 2262.88 1556)">
		<path d="M77.1,30.6c36.1,0,65.8-29.7,65.8-65.8c0-36.1-29.7-65.8-65.9-65.8C41-101,11.3-71.3,11.3-35.2
			C11.3,0.9,41,30.6,77.1,30.6z M77.1,15.9c-28.3,0-51-22.8-51-51.1s22.7-51.1,51-51.1c28.3,0,51.1,22.8,51.1,51.1
			C128.2-6.9,105.4,15.9,77.1,15.9z"/>
	</g>
	<g id="Semibold-L" transform="matrix(1 0 0 1 1966.97 1556)">
		<path d="M76.3,29.8c35.6,0,65-29.3,65-65c0-35.6-29.4-65-65-65c-35.6,0-65,29.4-65,65C11.3,0.4,40.7,29.8,76.3,29.8z M76.3,17.1
			C47.3,17.1,24-6.2,24-35.2c0-29,23.2-52.3,52.2-52.3c29,0,52.3,23.3,52.3,52.3C128.7-6.2,105.3,17.1,76.3,17.1z"/>
	</g>
	<g id="Medium-L" transform="matrix(1 0 0 1 1670.87 1556)">
		<path d="M75.7,29.2c35.3,0,64.4-29.2,64.4-64.4s-29.2-64.4-64.5-64.4c-35.3,0-64.4,29.2-64.4,64.4S40.4,29.2,75.7,29.2z
			 M75.7,18.1c-29.5,0-53.2-23.8-53.2-53.3s23.7-53.3,53.2-53.3s53.3,23.8,53.3,53.3C129-5.7,105.2,18.1,75.7,18.1z"/>
	</g>
	<g id="Regular-L" transform="matrix(1 0 0 1 1374.97 1556)">
		<path d="M74.9,28.4c34.8,0,63.6-28.8,63.6-63.6c0-34.8-28.9-63.6-63.7-63.6C40-98.8,11.3-70,11.3-35.2
			C11.3-0.4,40.1,28.4,74.9,28.4z M74.9,19.3C44.7,19.3,20.4-5,20.4-35.2s24.2-54.5,54.4-54.5c30.2,0,54.5,24.3,54.5,54.5
			C129.4-5,105.1,19.3,74.9,19.3z"/>
	</g>
	<g id="Light-L" transform="matrix(1 0 0 1 1079.18 1556)">
		<path d="M73.9,27.5c34.4,0,62.7-28.3,62.7-62.6c0-34.4-28.4-62.7-62.7-62.7c-34.4,0-62.6,28.3-62.6,62.7
			C11.3-0.8,39.6,27.5,73.9,27.5z M73.9,20.6c-30.8,0-55.7-25-55.7-55.8c0-30.9,24.9-55.8,55.7-55.8c30.8,0,55.8,24.9,55.8,55.8
			C129.7-4.3,104.8,20.6,73.9,20.6z"/>
	</g>
	<g id="Thin-L" transform="matrix(1 0 0 1 783.693 1556)">
		<path d="M72.7,26.3c33.8,0,61.5-27.7,61.5-61.4c0-33.8-27.7-61.5-61.5-61.5c-33.7,0-61.4,27.7-61.4,61.5
			C11.3-1.4,39,26.3,72.7,26.3z M72.7,22.3C41,22.3,15.3-3.4,15.3-35.1c0-31.7,25.7-57.5,57.4-57.5c31.7,0,57.5,25.7,57.5,57.5
			C130.2-3.4,104.4,22.3,72.7,22.3z"/>
	</g>
	<g id="Ultralight-L" transform="matrix(1 0 0 1 487.616 1556)">
		<path d="M72.1,25.7c33.4,0,60.8-27.3,60.8-60.8c0-33.4-27.3-60.8-60.8-60.8c-33.5,0-60.8,27.3-60.8,60.8
			C11.3-1.6,38.6,25.7,72.1,25.7z M72.1,23.2C39.9,23.2,13.8-3,13.8-35.1s26.2-58.3,58.3-58.3c32.1,0,58.3,26.2,58.3,58.3
			S104.2,23.2,72.1,23.2z"/>
	</g>
	<g id="Black-M" transform="matrix(1 0 0 1 2870.97 1126)">
		<path d="M62.4,18.5c29.6,0,53.7-24.1,53.7-53.7c0-29.6-24.1-53.7-53.7-53.7c-29.6,0-53.7,24.1-53.7,53.7
			C8.7-5.6,32.8,18.5,62.4,18.5z M62.4,0.2C42.9,0.2,27-15.6,27-35.2c0-19.5,15.9-35.4,35.4-35.4c19.6,0,35.4,15.9,35.4,35.4
			C97.8-15.6,82,0.2,62.4,0.2z"/>
	</g>
	<g id="Heavy-M" transform="matrix(1 0 0 1 2575.19 1126)">
		<path d="M61.5,17.6c29,0,52.7-23.7,52.7-52.8c0-29.1-23.7-52.8-52.8-52.8c-29,0-52.7,23.7-52.7,52.8C8.7-6.2,32.5,17.6,61.5,17.6z
			 M61.5,1.7c-20.4,0-36.9-16.5-36.9-36.9s16.5-36.9,36.8-36.9c20.4,0,36.9,16.5,36.9,36.9S81.9,1.7,61.5,1.7z"/>
	</g>
	<g id="Bold-M" transform="matrix(1 0 0 1 2279.5 1126)">
		<path d="M60.5,16.5c28.4,0,51.7-23.3,51.7-51.7c0-28.4-23.3-51.8-51.8-51.8S8.7-63.6,8.7-35.2C8.7-6.8,32.1,16.5,60.5,16.5z
			 M60.5,3.2c-21.3,0-38.4-17.1-38.4-38.4c0-21.3,17.1-38.5,38.4-38.5c21.3,0,38.5,17.2,38.5,38.5C99-13.9,81.8,3.2,60.5,3.2z"/>
	</g>
	<g id="Semibold-M" transform="matrix(1 0 0 1 1983.5 1126)">
		<path d="M59.8,15.8c28,0,51-23,51-51c0-28-23.1-51.1-51-51.1c-28,0-51,23.1-51,51.1C8.7-7.2,31.8,15.8,59.8,15.8z M59.8,4.3
			c-21.9,0-39.5-17.6-39.5-39.6c0-21.9,17.5-39.6,39.5-39.6c21.9,0,39.6,17.7,39.6,39.6C99.4-13.3,81.7,4.3,59.8,4.3z"/>
	</g>
	<g id="Medium-M" transform="matrix(1 0 0 1 1687.3 1126)">
		<path d="M59.2,15.3c27.7,0,50.5-22.9,50.5-50.5c0-27.7-22.9-50.5-50.6-50.5c-27.6,0-50.4,22.9-50.4,50.5
			C8.7-7.6,31.6,15.3,59.2,15.3z M59.2,5.2c-22.4,0-40.3-18-40.3-40.4c0-22.4,17.9-40.4,40.3-40.4c22.4,0,40.4,18,40.5,40.4
			C99.7-12.8,81.6,5.2,59.2,5.2z"/>
	</g>
	<g id="Light-M" transform="matrix(1 0 0 1 1095.42 1126)">
		<path d="M57.7,13.8c26.8,0,49-22.2,49-49c0-26.8-22.2-49-49-49c-26.8,0-48.9,22.2-48.9,49C8.7-8.4,30.9,13.8,57.7,13.8z M57.7,7.5
			c-23.6,0-42.6-19-42.6-42.7s19-42.6,42.6-42.6c23.6,0,42.7,19,42.7,42.6C100.4-11.6,81.3,7.5,57.7,7.5z"/>
	</g>
	<g id="Thin-M" transform="matrix(1 0 0 1 799.806 1126)">
		<path d="M56.6,12.7c26.3,0,47.9-21.6,47.9-47.9c0-26.3-21.6-47.9-47.9-47.9c-26.3,0-47.9,21.6-47.9,47.9
			C8.7-8.8,30.3,12.7,56.6,12.7z M56.6,9C32.2,9,12.5-10.8,12.5-35.2c0-24.4,19.8-44.1,44.1-44.1c24.4,0,44.2,19.8,44.2,44.1
			C100.8-10.8,81,9,56.6,9z"/>
	</g>
	<g id="Ultralight-M" transform="matrix(1 0 0 1 503.656 1126)">
		<path d="M56.1,12.2c26,0,47.3-21.3,47.3-47.4c0-26-21.3-47.3-47.3-47.3S8.7-61.2,8.7-35.2C8.7-9.1,30,12.2,56.1,12.2z M56.1,9.8
			c-24.8,0-44.9-20.2-44.9-45c0-24.8,20.2-44.9,44.9-44.9c24.8,0,44.9,20.2,44.9,44.9C101-10.4,80.9,9.8,56.1,9.8z"/>
	</g>
	<g id="Black-S" transform="matrix(1 0 0 1 2884.57 696)">
		<path d="M48.8,6.8c23.1,0,42-18.8,42-42c0-23.1-18.8-42-42-42c-23.1,0-42,18.8-42,42C6.8-12.1,25.7,6.8,48.8,6.8z M48.8-7.4
			C33.4-7.4,21-19.8,21-35.2C21-50.6,33.4-63,48.8-63c15.4,0,27.8,12.5,27.8,27.8C76.7-19.8,64.2-7.4,48.8-7.4z"/>
	</g>
	<g id="Heavy-S" transform="matrix(1 0 0 1 2588.47 696)">
		<path d="M48.2,6.2c22.8,0,41.4-18.6,41.4-41.4S71-76.6,48.2-76.6C25.4-76.6,6.8-58,6.8-35.2S25.4,6.2,48.2,6.2z M48.2-6.4
			c-16,0-28.8-12.9-28.8-28.8c0-16,12.8-28.8,28.8-28.8c16,0,28.8,12.8,28.9,28.8C77.1-19.3,64.2-6.4,48.2-6.4z"/>
	</g>
	<g id="Bold-S" transform="matrix(1 0 0 1 2292.44 696)">
		<path d="M47.6,5.5c22.3,0,40.7-18.4,40.7-40.7c0-22.4-18.4-40.7-40.7-40.7c-22.3,0-40.7,18.4-40.7,40.7
			C6.8-12.9,25.2,5.5,47.6,5.5z M47.6-5.3C31-5.3,17.7-18.7,17.7-35.2c0-16.6,13.3-29.9,29.8-29.9c16.6,0,29.9,13.3,29.9,29.9
			C77.4-18.7,64.1-5.3,47.6-5.3z"/>
	</g>
	<g id="Semibold-S" transform="matrix(1 0 0 1 1996.2 696)">
		<path d="M47.1,5c22,0,40.2-18.2,40.2-40.2c0-22-18.2-40.2-40.3-40.2c-22,0-40.2,18.2-40.2,40.2C6.8-13.2,25,5,47.1,5z M47.1-4.6
			c-17,0-30.6-13.6-30.6-30.7c0-17,13.6-30.6,30.6-30.6c17,0,30.7,13.6,30.7,30.6C77.7-18.2,64.1-4.6,47.1-4.6z"/>
	</g>
	<g id="Medium-S" transform="matrix(1 0 0 1 1699.83 696)">
		<path d="M46.7,4.6c21.8,0,39.9-18.1,39.9-39.9c0-21.8-18.1-39.9-39.9-39.9S6.8-57,6.8-35.3C6.8-13.4,24.9,4.6,46.7,4.6z M46.7-4
			C29.4-4,15.5-17.9,15.5-35.3s13.8-31.2,31.2-31.2s31.2,13.9,31.3,31.2C78-17.9,64.1-4,46.7-4z"/>
	</g>
	<g id="Regular-S" transform="matrix(1 0 0 1 1403.58 696)">
		<path d="M46.2,4.2c21.5,0,39.5-17.9,39.5-39.4s-18-39.4-39.5-39.4c-21.5,0-39.4,17.9-39.4,39.4S24.8,4.2,46.2,4.2z M46.2-3.3
			c-17.7,0-31.9-14.2-31.9-32s14.1-32,31.8-32c17.8,0,32,14.2,32,32C78.3-17.5,64-3.3,46.2-3.3z"/>
	</g>
	<g id="Light-S" transform="matrix(1 0 0 1 1107.6 696)">
		<path d="M45.5,3.5c21.2,0,38.7-17.5,38.7-38.7c0-21.2-17.6-38.7-38.7-38.7c-21.2,0-38.7,17.5-38.7,38.7
			C6.8-14.1,24.4,3.5,45.5,3.5z M45.5-2.2c-18.3,0-32.9-14.7-32.9-33c0-18.3,14.6-33,32.9-33c18.3,0,33,14.7,33,33
			C78.5-16.9,63.8-2.2,45.5-2.2z"/>
	</g>
	<g id="Thin-S" transform="matrix(1 0 0 1 811.867 696)">
		<path d="M44.6,2.5c20.7,0,37.7-17,37.7-37.7c0-20.7-17-37.7-37.7-37.7c-20.7,0-37.7,17-37.7,37.7C6.8-14.5,23.9,2.5,44.6,2.5z
			 M44.6-0.9c-19,0-34.3-15.3-34.3-34.3c0-18.9,15.3-34.3,34.3-34.3c19,0,34.3,15.3,34.3,34.3C78.9-16.2,63.5-0.9,44.6-0.9z"/>
	</g>
	<g id="Ultralight-S" transform="matrix(1 0 0 1 515.644 696)">
		<path d="M44,2.1c20.5,0,37.3-16.7,37.3-37.2c0-20.5-16.8-37.2-37.3-37.2S6.8-55.6,6.8-35.2C6.8-14.7,23.6,2.1,44,2.1z M44-0.1
			c-19.3,0-35-15.7-35-35c0-19.3,15.7-35,35-35c19.3,0,35,15.7,35,35C79.1-15.9,63.4-0.1,44-0.1z"/>
	</g>
	<g id="Regular-M">
		<path d="M1494.7,1090.8c-1.1,0-2.3,0-3.4-0.1c-22.1-1.7-39.7-19.3-41.4-41.4c-0.1-1.1-0.1-2.2-0.1-3.3v-5h-0.1
			c-3.4,0-6.7,0.4-9.9,1c-22.5,4.7-39.8,25-39.8,48.8c0,27.2,22.6,49.8,49.8,49.8c23.8,0,44.1-17.2,48.8-39.8c0.7-3.2,1-6.6,1-10
			H1494.7z M1449.8,1132.2c-23,0-41.5-18.5-41.5-41.5c0-19.6,13.4-36,31.7-40.4c2.2,26.7,23.5,48,50.2,50.2
			C1485.9,1118.8,1469.5,1132.2,1449.8,1132.2z"/>
		<path d="M1424.3,1083.4c-3.3,0-6.1,2.7-6.1,6.1c0,3.3,2.7,6.1,6.1,6.1s6.1-2.7,6.1-6.1C1430.3,1086.1,1427.6,1083.4,1424.3,1083.4
			z"/>
		<circle cx="1445.2" cy="1108.1" r="2.7"/>
		<path d="M1468.6,1112.2c2.4,0,4.3-1.9,4.3-4.3s-1.9-4.3-4.3-4.3c-2.4,0-4.3,1.9-4.3,4.3S1466.2,1112.2,1468.6,1112.2z"/>
		<path d="M1426,1110.8c-1,0-1.8,0.8-1.8,1.8c0,1,0.8,1.8,1.8,1.8s1.8-0.8,1.8-1.8C1427.8,1111.6,1427,1110.8,1426,1110.8z"/>
		<path d="M1463.3,1050.4c0.8,0,1.5-0.7,1.5-1.5s-0.7-1.5-1.5-1.5c-0.8,0-1.5,0.7-1.5,1.5S1462.5,1050.4,1463.3,1050.4z"/>
		<path d="M1470.7,1069.9c2.7,0,4.9-2.2,4.9-4.9s-2.2-4.9-4.9-4.9c-2.7,0-4.9,2.2-4.9,4.9S1467.9,1069.9,1470.7,1069.9z"/>
		<path d="M1488,1068.9c0.8,0,1.4-0.6,1.4-1.4s-0.6-1.4-1.4-1.4c-0.8,0-1.4,0.6-1.4,1.4S1487.3,1068.9,1488,1068.9z"/>
	</g>
</g>
</svg>
